{"title":"[OOTR] Naruto Shippuuden Episodes 80-90 MANGA EDIT","uid":8041465,"size":525231506,"categoryP":"video","categoryS":"tv_shows","magnet":"?xt=urn:btih:ab946a9124830e061b5f27c5cc97b2e67f367cbb&amp;dn=%5BOOTR%5D+Naruto+Shippuuden+Episodes+80-90+MANGA+EDIT&amp;tr=udp%3A%2F%2Ftracker.openbittorrent.com%3A80&amp;tr=udp%3A%2F%2Fopen.demonii.com%3A1337&amp;tr=udp%3A%2F%2Ftracker.coppersurfer.tk%3A6969&amp;tr=udp%3A%2F%2Fexodus.desync.com%3A6969","seeders":1,"leechers":0,"uploader":"OOTR","files":1,"time":1358641030,"description":"Naruto Shippuuden Episodes 80-90 MANGA EDIT\n\nFormat                                   : MPEG-4\nCodec ID                                 : M4V \nFile size                                : 501 MiB\nDuration                                 : 2h 25mn\nOverall bit rate mode                    : Variable\nOverall bit rate                         : 483 Kbps\nEncoded date                             : UTC 2013-01-19 23:07:43\nTagged date                              : UTC 2013-01-19 23:07:56\nÂ©TIM                                     : 00:00:00:00\nÂ©TSC                                     : 24000\nÂ©TSZ                                     : 1001\n\nVideo\nID                                       : 1\nFormat                                   : AVC\nFormat/Info                              : Advanced Video Codec\nFormat profile                           : &lt;a class=&quot;__cf_email__&quot; href=&quot;/cdn-cgi/l/email-protection&quot; data-cfemail=&quot;2466455741484d4a416468170a15&quot;&gt;[email&amp;#160;protected]&lt;/a&gt;&lt;script cf-hash='f9e31' type=&quot;text/javascript&quot;&gt;\n/* &lt;![CDATA[ */!function(){try{var t=&quot;currentScript&quot;in document?document.currentScript:function(){for(var t=document.getElementsByTagName(&quot;script&quot;),e=t.length;e--;)if(t[e].getAttribute(&quot;cf-hash&quot;))return t[e]}();if(t&amp;&amp;t.previousSibling){var e,r,n,i,c=t.previousSibling,a=c.getAttribute(&quot;data-cfemail&quot;);if(a){for(e=&quot;&quot;,r=parseInt(a.substr(0,2),16),n=2;a.length-n;n+=2)i=parseInt(a.substr(n,2),16)^r,e+=String.fromCharCode(i);e=document.createTextNode(e),c.parentNode.replaceChild(e,c)}}}catch(u){}}();/* ]]&gt; */&lt;/script&gt;\nFormat settings, CABAC                   : No\nFormat settings, ReFrames                : 2 frames\nCodec ID                                 : avc1\nCodec ID/Info                            : Advanced Video Coding\nDuration                                 : 2h 25mn\nSource duration                          : 2h 25mn\nBit rate mode                            : Variable\nBit rate                                 : 355 Kbps\nWidth                                    : 854 pixels\nHeight                                   : 480 pixels\nDisplay aspect ratio                     : 16:9\nFrame rate mode                          : Variable\nFrame rate                               : 23.976 fps\nMinimum frame rate                       : 23.976 fps\nMaximum frame rate                       : 24.000 fps\nStandard                                 : NTSC\nColor space                              : YUV\nChroma subsampling                       : 4:2:0\nBit depth                                : 8 bits\nScan type                                : Progressive\nBits/(Pixel*Frame)                       : 0.036\nStream size                              : 368 MiB (73%)\nSource stream size                       : 368 MiB (73%)\nLanguage                                 : English\nEncoded date                             : UTC 2013-01-19 23:07:43\n\nAudio\nID                                       : 2\nFormat                                   : AAC\nFormat/Info                              : Advanced Audio Codec\nFormat profile                           : LC\nCodec ID                                 : 40\nDuration                                 : 2h 25mn\nSource duration                          : 2h 25mn\nBit rate mode                            : Variable\nBit rate                                 : 126 Kbps\nMaximum bit rate                         : 212 Kbps\nChannel(s)                               : 2 channels\nChannel positions                        : Front: L R\nSampling rate                            : 44.1 KHz\nCompression mode                         : Lossy\nStream size                              : 130 MiB (26%)","torrent":{"xt":"urn:btih:ab946a9124830e061b5f27c5cc97b2e67f367cbb","amp;dn":"%5BOOTR%5D+Naruto+Shippuuden+Episodes+80-90+MANGA+EDIT","amp;tr":["udp%3A%2F%2Ftracker.openbittorrent.com%3A80","udp%3A%2F%2Fopen.demonii.com%3A1337","udp%3A%2F%2Ftracker.coppersurfer.tk%3A6969","udp%3A%2F%2Fexodus.desync.com%3A6969"],"infoHash":"ab946a9124830e061b5f27c5cc97b2e67f367cbb","infoHashBuffer":{"type":"Buffer","data":[171,148,106,145,36,131,14,6,27,95,39,197,204,151,178,230,127,54,124,187]},"announce":[],"urlList":[]}}